<svg xmlns="http://www.w3.org/2000/svg" id="Ebene_1" data-name="Ebene 1" viewBox="0 0 1984.25 695.58"><defs><style>      .cls-1 {        fill: #0ea5ff;      }      .cls-1, .cls-2 {        stroke-width: 0px;      }      .cls-2 {        fill: #fff;      }    </style></defs><path class="cls-2" d="m132.36,137.8c43.19,0,75.4,35.11,75.4,78.64s-32.44,79.63-75.4,79.63-79.73-37.83-79.73-79.63,37.7-78.64,79.73-78.64Zm-1.09-50.03c-31.27,0-59.11,12.4-80.7,31.79v-20.5c.03-4.14-3.3-7.52-7.45-7.55H7.53c-2,0-3.9.81-5.3,2.22-1.4,1.42-2.18,3.34-2.17,5.33v339.98c.02,4.12,3.35,7.46,7.47,7.47h35.6c4.11-.03,7.43-3.36,7.45-7.47v-125.5c21.57,19.8,49.38,32.54,80.7,32.54,70.7,0,128.67-60.08,128.67-129.63s-58.13-128.67-128.67-128.67Z"></path><path class="cls-1" d="m424.8,137.8c42.03,0,79.73,35.68,79.73,78.64s-37.93,79.63-79.73,79.63-75.43-37.25-75.43-79.63,32.24-78.64,75.43-78.64Zm1.07-50.03c-70.54,0-128.57,58.13-128.57,128.67s57.86,129.63,128.57,129.63c31.31,0,59.23-12.74,80.83-32.54v20.39c.03,4.1,3.34,7.42,7.45,7.45h35.6c4.1-.03,7.42-3.34,7.45-7.45V99.07c.03-4.14-3.31-7.52-7.45-7.55h-35.6c-4.14.03-7.47,3.41-7.45,7.55v20.5c-21.62-19.39-49.55-31.79-80.83-31.79Z"></path><path class="cls-1" d="m602.35,97.27c-4.14.03-7.47,3.41-7.45,7.55v233.78c.02,4.11,3.34,7.44,7.45,7.47h37.16c4.12-.02,7.45-3.36,7.47-7.47V104.82c.01-1.99-.77-3.91-2.17-5.32-1.4-1.42-3.31-2.21-5.3-2.23h-37.16ZM620.38,0c-18.41,0-32.95,14.84-32.95,31.97,0,18.23,14.71,32.95,32.95,32.95s32.46-14.52,32.46-32.95c0-17.35-14.79-31.97-32.46-31.97Z"></path><path class="cls-2" d="m1110.41,137.8c43.19,0,76.49,35.23,76.49,78.64s-33.53,79.63-76.49,79.63-76.6-37.37-76.6-79.63,33.41-78.64,76.6-78.64Zm0-50.03c-70.54,0-128.67,58.12-128.67,128.67s57.97,129.63,128.67,129.63,128.56-60.09,128.56-129.63-58.02-128.67-128.56-128.67Z"></path><path class="cls-2" d="m812.08,137.8c42.03,0,79.63,35.67,79.63,78.64s-37.83,79.63-79.63,79.63-75.5-37.26-75.5-79.63,32.32-78.64,75.5-78.64Zm.98-50.03c-70.54,0-128.56,58.13-128.56,128.67s57.86,129.65,128.56,129.65c31.32,0,59.2-12.76,80.8-32.56v125.53c.03,4.1,3.34,7.41,7.45,7.44h35.6c4.11-.02,7.44-3.34,7.47-7.44V99.07c.01-1.99-.77-3.91-2.17-5.32-1.4-1.42-3.31-2.22-5.31-2.23h-35.6c-4.14.03-7.47,3.41-7.45,7.55v20.5c-21.62-19.39-49.53-31.79-80.8-31.79Z"></path><polygon class="cls-2" points="31.63 669.69 41.17 669.69 41.17 586.82 72.67 586.82 72.67 577.81 0 577.81 0 586.82 31.63 586.82 31.63 669.69"></polygon><path class="cls-2" d="m95.95,669.69h8.75v-30.11c0-12.48,7.19-18.92,18.82-18.92,9.54,0,14.77,5.53,14.77,16.73v32.3h8.76v-32.3c0-18.02-7.06-25.22-23.53-25.22-7.84,0-14.24,2.83-18.82,7.72v-47.23h-8.75v97.02Z"></path><path class="cls-2" d="m202.09,620.66c10.06,0,18.29,7.2,20.26,16.6h-40.51c1.96-9.4,10.06-16.6,20.26-16.6Zm29.8,20.85c0-16.09-13.46-29.34-29.8-29.34s-29.8,13.26-29.8,29.34,13.46,29.6,29.8,29.6c11.63,0,21.96-6.57,26.79-16.34h-10.84c-3.66,4.63-9.28,7.85-15.94,7.85-10.2,0-18.43-7.72-20.26-17.11h50.05v-3.99Z"></path><path class="cls-2" d="m332.81,625.94v-39.12h21.04c12.02,0,19.87,7.85,19.87,19.56s-7.98,19.55-19.87,19.55h-21.04Zm-9.54-48.12v91.88h9.54v-34.74h21.04c17.91,0,29.8-11.45,29.8-28.56s-12.02-28.57-29.8-28.57h-30.58Z"></path><rect class="cls-2" x="408.89" y="577.81" width="8.76" height="91.88"></rect><path class="cls-2" d="m473.08,662.61c-11.63,0-20.39-9.9-20.39-21.1s8.75-20.85,20.39-20.85,21.44,9.39,21.44,20.85-10.07,21.1-21.44,21.1Zm.27,8.5c8.76,0,16.46-4.12,21.69-10.42v9.27h8.76v-56.88h-8.76v9.27c-5.23-6.18-12.94-10.17-21.69-10.17-16.34,0-29.8,13.26-29.8,29.34s13.46,29.6,29.8,29.6Z"></path><polygon class="cls-2" points="560.02 620.92 560.02 613.07 547.08 613.07 547.08 590.81 538.32 590.81 538.32 613.07 529.7 613.07 529.7 620.92 538.32 620.92 538.32 669.69 547.08 669.69 547.08 620.92 560.02 620.92"></polygon><path class="cls-2" d="m588.4,669.69v-48.77h-7.71v-7.85h7.71v-7.72c0-13.9.39-30.37,21.04-27.54v7.98c-13.46-1.67-12.29,11.2-12.29,19.56v7.72h11.63v7.85h-11.63v48.77h-8.75Z"></path><path class="cls-2" d="m660.57,620.66c11.63,0,20.65,9.39,20.65,20.85s-9.01,21.1-20.65,21.1-20.65-9.9-20.65-21.1,9.02-20.85,20.65-20.85Zm0,50.44c16.33,0,29.8-13.77,29.8-29.6s-13.46-29.34-29.8-29.34-29.8,13.26-29.8,29.34,13.46,29.6,29.8,29.6Z"></path><path class="cls-2" d="m725.67,613.07h-8.75v56.62h8.75v-31.27c0-11.58,9.28-17.75,19.48-17.75v-8.5c-7.97,0-14.77,3.34-19.48,8.63v-7.72Z"></path><path class="cls-2" d="m833.9,612.17c-8.62,0-15.42,3.99-19.47,10.94-3.01-7.72-9.28-10.94-19.35-10.94-7.18,0-13.07,2.83-17.25,7.72v-6.82h-8.75v56.62h8.75v-29.47c0-13.77,6.66-19.56,17.25-19.56,8.5,0,12.81,5.53,12.81,16.73v32.3h8.75v-29.47c0-13.77,6.66-19.56,17.25-19.56,8.49,0,12.81,5.53,12.81,16.73v32.3h8.76v-32.3c0-18.02-6.67-25.22-21.57-25.22Z"></path><path class="cls-2" d="m1179.19,624.29h-32.02l16.07-35,15.94,35Zm-63.12,45.55h10.32l16.73-36.54h40.12l16.73,36.54h10.32l-41.95-91.88h-10.33l-41.95,91.88Z"></path><rect class="cls-2" x="1236.07" y="577.97" width="9.54" height="91.88"></rect><path class="cls-2" d="m1422.48,647.97c-6.93,8.49-17.65,13.77-29.67,13.77-21.57,0-38.82-16.98-38.82-38.21s17.25-37.19,38.82-37.19c11.89,0,22.35,5.14,29.4,13.25h11.9c-8.5-13.38-23.79-22.65-41.3-22.65-26.8,0-48.75,21.36-48.75,46.58s21.96,47.61,48.75,47.61c17.64,0,33.06-9.27,41.56-23.16h-11.89Z"></path><path class="cls-2" d="m1489.82,620.82c11.63,0,20.65,9.39,20.65,20.84s-9.02,21.11-20.65,21.11-20.65-9.91-20.65-21.11,9.01-20.84,20.65-20.84Zm0,50.44c16.34,0,29.79-13.77,29.79-29.6s-13.46-29.34-29.79-29.34-29.8,13.26-29.8,29.34,13.46,29.6,29.8,29.6Z"></path><path class="cls-2" d="m1613.35,612.32c-8.62,0-15.42,3.99-19.48,10.94-3-7.72-9.27-10.94-19.34-10.94-7.19,0-13.07,2.83-17.25,7.72v-6.82h-8.76v56.62h8.76v-29.47c0-13.77,6.66-19.55,17.25-19.55,8.5,0,12.81,5.53,12.81,16.72v32.3h8.76v-29.47c0-13.77,6.66-19.55,17.25-19.55,8.49,0,12.81,5.53,12.81,16.72v32.3h8.75v-32.3c0-18.01-6.66-25.22-21.56-25.22Z"></path><path class="cls-2" d="m1697.81,662.77c-11.37,0-21.44-9.91-21.44-21.11s10.07-20.84,21.44-20.84,20.39,9.39,20.39,20.84-8.75,21.11-20.39,21.11Zm-.27-50.44c-8.75,0-16.46,3.99-21.69,10.16v-9.26h-8.75v82.35h8.75v-34.74c5.23,6.31,12.94,10.42,21.69,10.42,16.34,0,29.8-13.77,29.8-29.6s-13.46-29.34-29.8-29.34Z"></path><path class="cls-2" d="m1782.53,662.77c-11.63,0-20.39-9.91-20.39-21.11s8.76-20.84,20.39-20.84,21.43,9.39,21.43,20.84-10.06,21.11-21.43,21.11Zm.26,8.49c8.75,0,16.46-4.12,21.69-10.42v9.26h8.76v-56.87h-8.76v9.26c-5.23-6.17-12.94-10.16-21.69-10.16-16.34,0-29.8,13.26-29.8,29.34s13.46,29.6,29.8,29.6Z"></path><path class="cls-2" d="m1847.39,669.85h8.75v-30.11c0-12.74,7.19-19.17,18.82-18.91,9.54,0,14.77,5.53,14.77,16.72v32.3h8.76v-32.3c0-18.01-7.06-25.22-23.52-25.22-7.84,0-14.25,2.83-18.82,7.72v-6.82h-8.75v56.62Z"></path><polygon class="cls-2" points="1958.77 663.54 1984.25 613.23 1973.93 613.23 1953.54 653.25 1933.28 613.23 1922.96 613.23 1948.44 663.41 1932.11 695.58 1942.43 695.58 1958.77 663.54"></polygon><path class="cls-2" d="m996.73,660.02c-19.47,13.04-36.98,5.36-41.99-8.75-3.57-9.29-.53-22.15,10.9-31.8,3.04,4.47,6.44,9.11,10.18,14.11,6.08,8.04,13.41,17.15,20.91,26.45Zm-10.37-34.66c-17.5-23.41-24.47-35.73-22.68-48.23,1.25-9.29,6.97-15.19,14.47-16.44,5.71-.9,16.44.17,20.37,10.54.71,2.14,1.97,7.86,1.25,12.86h13.57c.9-6.96-.53-14.29-2.14-18.22-5.9-15-21.97-20.01-38.41-16.61-11.25,2.32-20.37,12.15-22.33,27.69-1.07,8.93,1.07,20.54,8.4,32.52-16.61,13.04-20.72,32.69-15.72,46.27,7.68,21.08,34.49,32.33,61.46,13.94l6.25,7.5h16.44l-12.87-16.43c5.01-5.72,10.9-15.72,14.83-27.33h-13.58c-2.5,6.97-5.9,13.57-8.94,17.68-7.14-9.29-14.64-18.22-20.37-25.72Z"></path></svg>